<svg id="visual" viewBox="0 0 900 600" width="900" height="600" xmlns="http://www.w3.org/2000/svg" xmlns:xlink="http://www.w3.org/1999/xlink" version="1.1"><rect x="0" y="0" width="900" height="600" fill="#FFFFFF"></rect><defs><linearGradient id="grad1_0" x1="33.3%" y1="0%" x2="100%" y2="100%"><stop offset="20%" stop-color="#ffffff" stop-opacity="1"></stop><stop offset="80%" stop-color="#ffffff" stop-opacity="1"></stop></linearGradient></defs><defs><linearGradient id="grad2_0" x1="0%" y1="0%" x2="66.7%" y2="100%"><stop offset="20%" stop-color="#ffffff" stop-opacity="1"></stop><stop offset="80%" stop-color="#ffffff" stop-opacity="1"></stop></linearGradient></defs><g transform="translate(900, 0)"><path d="M0 405.6C-30.2 402.2 -60.3 398.8 -89.2 390.9C-118.1 383.1 -145.8 370.8 -171.4 355.9C-197 341 -220.5 323.5 -243.8 305.7C-267 287.9 -290 269.8 -312 248.8C-333.9 227.7 -354.9 203.7 -365.5 176C-376 148.3 -376.2 116.9 -381.2 87C-386.2 57.1 -395.9 28.5 -405.6 0L0 0Z" fill="#3cb5fa"></path></g><g transform="translate(0, 600)"><path d="M0 -405.6C29.9 -401 59.8 -396.3 88.8 -389C117.8 -381.7 145.8 -371.8 172.7 -358.6C199.6 -345.4 225.4 -329 246.3 -308.8C267.2 -288.7 283.3 -264.8 304.9 -243.2C326.6 -221.6 353.8 -202.2 365.5 -176C377.1 -149.8 373.2 -116.6 377.3 -86.1C381.4 -55.6 393.5 -27.8 405.6 0L0 0Z" fill="#3cb5fa"></path></g></svg>